<svg width="214" height="39" viewBox="0 0 214 39" fill="none" xmlns="http://www.w3.org/2000/svg">
<g clip-path="url(#clip0_4_70429)">
<path d="M187.814 6.43689C178.892 6.43689 171.647 13.7379 171.647 22.7282C171.647 31.7184 178.892 39.0194 187.814 39.0194C196.735 39.0194 203.98 31.7184 203.98 22.7282C203.98 13.7379 196.735 6.43689 187.814 6.43689ZM187.814 33.5825C181.86 33.5825 177.042 28.7282 177.042 22.7282C177.042 16.7282 181.86 11.8738 187.814 11.8738C193.768 11.8738 198.585 16.7282 198.585 22.7282C198.585 28.7282 193.768 33.5825 187.814 33.5825Z" fill="white"/>
<path d="M107.385 1H102.954C102.684 1 102.472 1.21359 102.472 1.48544V9.54369C102.472 9.95146 102.009 10.165 101.682 9.91262C100.314 8.82524 98.7529 7.95146 97.0765 7.34951C95.4001 6.74757 93.5889 6.41748 91.6812 6.41748C83.8773 6.41748 77.3645 11.9903 75.8615 19.4078C75.8037 19.7184 76.0349 19.9903 76.3432 19.9903H80.8907C81.1026 19.9903 81.276 19.8544 81.3339 19.6408C82.6441 15.1359 86.7677 11.835 91.6812 11.835C96.5948 11.835 100.718 15.1359 102.029 19.6408C102.086 19.8544 102.26 19.9903 102.472 19.9903H107.366C107.636 19.9903 107.848 19.7767 107.848 19.5049V1.48544C107.848 1.21359 107.636 1 107.366 1H107.385Z" fill="white"/>
<path d="M107.385 25.4272H102.491C102.279 25.4272 102.106 25.5632 102.048 25.7768C100.738 30.2816 96.6141 33.5826 91.7005 33.5826C86.787 33.5826 82.6634 30.2816 81.3531 25.7768C81.2953 25.5632 81.1219 25.4272 80.91 25.4272H76.3625C76.0542 25.4272 75.823 25.7185 75.8808 26.0098C77.403 33.4272 83.8966 39.0001 91.7005 39.0001C95.8433 39.0001 99.62 37.4272 102.472 34.8447V38.5146C102.472 38.7865 102.684 39.0001 102.954 39.0001H107.385C107.655 39.0001 107.867 38.7865 107.867 38.5146V25.9127C107.867 25.6408 107.655 25.4272 107.385 25.4272Z" fill="white"/>
<path d="M129.082 6.43689C121.278 6.43689 114.765 12.0097 113.262 19.4272C113.205 19.7379 113.436 20.0097 113.744 20.0097H118.292C118.504 20.0097 118.677 19.8738 118.735 19.6602C120.045 15.1553 124.169 11.8544 129.082 11.8544C133.996 11.8544 137.946 15 139.333 19.3689C139.429 19.6796 139.179 20.0097 138.871 20.0097H129.564C129.294 20.0097 129.082 20.2233 129.082 20.4951V24.9612C129.082 25.233 129.294 25.4466 129.564 25.4466H144.594C144.844 25.4466 145.056 25.2718 145.075 25.0194C145.191 24.2621 145.229 23.5048 145.229 22.7282C145.229 21.7961 145.152 20.9029 144.998 20.0097C143.726 12.301 137.079 6.43689 129.063 6.43689H129.082Z" fill="white"/>
<path d="M137.002 30.7476C136.828 30.5535 136.539 30.5535 136.346 30.7476C134.439 32.5146 131.876 33.5826 129.082 33.5826C124.188 33.5826 120.045 30.2816 118.735 25.7768C118.677 25.5632 118.504 25.4272 118.292 25.4272H113.744C113.436 25.4272 113.205 25.7185 113.262 26.0098C114.785 33.4272 121.278 39.0001 129.082 39.0001C133.341 39.0001 137.214 37.3496 140.085 34.6311C140.277 34.437 140.277 34.1263 140.085 33.9321L136.982 30.7476H137.002Z" fill="white"/>
<path d="M0 38.5146C0 38.7865 0.211958 39.0001 0.481722 39.0001H4.91356C5.18332 39.0001 5.39528 38.7865 5.39528 38.5146V25.4272H0V38.5146Z" fill="white"/>
<path d="M31.4082 17.2913C30.6953 15.2719 29.597 13.4272 28.2096 11.8544C28.0169 11.6214 27.8049 11.4078 27.593 11.1942C27.381 10.9806 27.1691 10.767 26.9378 10.5728C24.0668 7.9903 20.3094 6.41748 16.1666 6.41748C12.0237 6.41748 8.24705 7.9903 5.39526 10.5728C4.95207 10.9806 4.52816 11.3884 4.12351 11.8544C2.71689 13.4078 1.61856 15.2524 0.92488 17.2913C0.616578 18.1651 0.385352 19.0777 0.231201 20.0097H5.72283C6.9175 15.3301 11.1374 11.8738 16.1666 11.8738C19.134 11.8738 21.8316 13.0971 23.797 15.0583C25.1266 16.4175 26.1286 18.1262 26.6103 20.0291H32.1212C31.967 19.0971 31.7358 18.1845 31.4275 17.3107L31.4082 17.2913Z" fill="white"/>
<path d="M26.9379 38.5146C26.9379 38.7865 27.1498 39.0001 27.4196 39.0001H31.8514C32.1212 39.0001 32.3332 38.7865 32.3332 38.5146V25.4272H26.9379V38.5146Z" fill="white"/>
<path d="M166.56 1H162.128C161.862 1 161.646 1.21734 161.646 1.48544V38.5146C161.646 38.7827 161.862 39 162.128 39H166.56C166.826 39 167.042 38.7827 167.042 38.5146V1.48544C167.042 1.21734 166.826 1 166.56 1Z" fill="white"/>
<path d="M213.518 1H209.086C208.82 1 208.605 1.21734 208.605 1.48544V38.5146C208.605 38.7827 208.82 39 209.086 39H213.518C213.784 39 214 38.7827 214 38.5146V1.48544C214 1.21734 213.784 1 213.518 1Z" fill="white"/>
<path d="M53.8758 6.43689C45.8599 6.43689 39.2315 12.301 37.9597 20.0097H43.4513C44.646 15.3301 48.8466 11.8738 53.8758 11.8738C59.8299 11.8738 64.6471 16.7282 64.6471 22.7282C64.6471 28.7282 59.8299 33.5825 53.8758 33.5825C48.8659 33.5825 44.646 30.1262 43.4513 25.4466H37.9597C39.2507 33.1553 45.8792 39.0194 53.8758 39.0194C62.7973 39.0194 70.0424 31.7184 70.0424 22.7282C70.0424 13.7379 62.7973 6.43689 53.8758 6.43689Z" fill="white"/>
</g>
<defs>
<clipPath id="clip0_4_70429">
<rect width="214" height="38" fill="white" transform="translate(0 1)"/>
</clipPath>
</defs>
</svg>
