<svg width="66" height="19" viewBox="0 0 66 19" fill="none" xmlns="http://www.w3.org/2000/svg">
<g clip-path="url(#clip0_318_56675)">
<path d="M0 16.6772V2.29883H7.48919C10.441 2.29883 12.5389 3.71388 12.5389 6.31615C12.5637 6.89773 12.4445 7.47655 12.1917 8.0029C11.9389 8.52926 11.56 8.98745 11.0874 9.33813C11.6713 9.48845 12.1779 9.84627 12.509 10.3424C12.8402 10.8386 12.9725 11.4378 12.8804 12.0243V16.6173H9.7579V12.6479C9.77024 12.5284 9.75473 12.4077 9.71256 12.2949C9.67039 12.1821 9.60265 12.0803 9.51449 11.9971C9.42633 11.9138 9.32006 11.8515 9.20373 11.8146C9.08741 11.7778 8.96408 11.7675 8.8431 11.7845H3.09813V16.6772H0ZM3.09813 9.01435H7.24524C7.52339 9.07366 7.81145 9.07167 8.08872 9.00851C8.36599 8.94535 8.62559 8.82259 8.84887 8.64906C9.07215 8.47553 9.25356 8.25553 9.38007 8.00487C9.50658 7.7542 9.57505 7.4791 9.58056 7.19933C9.58607 6.91956 9.52848 6.64206 9.41193 6.38678C9.29537 6.13149 9.12276 5.90475 8.90648 5.72285C8.6902 5.54096 8.43562 5.40842 8.16104 5.33476C7.88647 5.2611 7.5987 5.24814 7.31843 5.29683H3.09813V9.01435Z" fill="white"/>
<path d="M15.0518 16.6772V2.29883H26.2489V5.29683H18.1499V7.94706H25.3098V10.7772H18.1499V13.6912H26.2489V16.6533L15.0518 16.6772Z" fill="white"/>
<path d="M28.4199 2.29879H34.5796C35.5616 2.25052 36.5431 2.4023 37.4626 2.74459C38.3821 3.08688 39.2197 3.61231 39.9229 4.28791C40.6261 4.9635 41.1797 5.77469 41.549 6.67057C41.9183 7.56645 42.0952 8.5277 42.0688 9.49399C42.0934 10.4598 41.9152 11.4202 41.5453 12.3153C41.1754 13.2104 40.6217 14.0208 39.9189 14.696C39.2161 15.3713 38.3792 15.8968 37.4605 16.2397C36.5419 16.5826 35.5611 16.7357 34.5796 16.6892H28.4199V2.29879ZM31.5181 5.29679V13.6912H34.5308C35.1052 13.7306 35.6816 13.6502 36.2222 13.4553C36.7628 13.2604 37.2554 12.9554 37.6677 12.5602C38.08 12.1651 38.4026 11.6887 38.6146 11.1623C38.8265 10.636 38.9229 10.0715 38.8975 9.50599C38.9245 8.93896 38.8294 8.37272 38.6184 7.84435C38.4073 7.31599 38.0851 6.83743 37.6728 6.44002C37.2606 6.04262 36.7676 5.73534 36.2261 5.53833C35.6846 5.34131 35.1069 5.259 34.5308 5.29679H31.5181Z" fill="white"/>
<path d="M56.6938 0.5L59.1577 3.12625L62.7681 2.67055L62.9267 6.24417L65.9882 8.17488L63.7927 11.017L64.8783 14.4227L61.3288 15.2022L59.9261 18.5L56.6938 16.8571L53.4737 18.5L52.071 15.2022L48.5216 14.4227L49.6071 11.017L47.3994 8.17488L50.461 6.24417L50.6317 2.67055L54.2299 3.12625L56.6938 0.5Z" fill="#E52E2E"/>
</g>
<defs>
<clipPath id="clip0_318_56675">
<rect width="66" height="18" fill="white" transform="translate(0 0.5)"/>
</clipPath>
</defs>
</svg>
